# xmcd CD database file
#
# Track frame offsets:
#	150
#	22544
#	36120
#	54035
#	80004
#	93423
#	107650
#	126831
#	152811
#	171004
#	184553
#	210288
#	227958
#
# Disc length: 3233 seconds
#
# Revision: 1
# Processed by: cddbd v1.5.2PL0 Copyright (c) Steve Scherf et al.
# Submitted via: CDex 1.51
#
DISCID=920c9f0d
DTITLE=Cadillac Sky - Blind Man Walking
DYEAR=2006
DGENRE=Bluegrass
TTITLE0=Born Lonesome
TTITLE1=Insomniac Blues For Matthew
TTITLE2=You Again
TTITLE3=Homesick Angel
TTITLE4=Blind Man Walking
TTITLE5=Neighborhood Bully's Long Look In The Mirror
TTITLE6=Sinners Welcome
TTITLE7=Redbird
TTITLE8=Motel Morning
TTITLE9=Can't Trust The Weatherman
TTITLE10=Never Been So Blue
TTITLE11=Mountain Man
TTITLE12=Wish I Could Say I Was Drinking
EXTD=YEAR: 2006
EXTT0=
EXTT1=
EXTT2=
EXTT3=
EXTT4=
EXTT5=
EXTT6=
EXTT7=
EXTT8=
EXTT9=
EXTT10=
EXTT11=
EXTT12=
PLAYORDER=
